<svg width="103" height="48" viewBox="0 0 103 48" fill="none" xmlns="http://www.w3.org/2000/svg">
<path d="M41.5298 41.5332C41.2937 41.1158 40.9892 40.902 40.5066 40.902C39.9991 40.902 39.4419 41.2665 39.4419 41.855C39.4419 42.3782 39.9308 42.6531 40.3284 42.8119L40.7841 43.0013C41.6914 43.3719 42.3666 43.8972 42.3666 45.0171C42.3666 46.2347 41.4718 47.1082 40.3284 47.1082C39.299 47.1082 38.4953 46.308 38.3586 45.2308L39.1623 45.0537C39.154 45.7908 39.7112 46.3242 40.3968 46.3242C41.0824 46.3242 41.5712 45.7195 41.5712 45.0171C41.5712 44.2963 41.0223 43.9868 40.4734 43.7465L40.0343 43.551C39.3073 43.2232 38.6445 42.7875 38.6445 41.855C38.6445 40.7697 39.56 40.1202 40.5232 40.1202C41.2336 40.1202 41.8177 40.4846 42.1636 41.1342L41.5298 41.5332Z" fill="white"/>
<path d="M44.9556 46.9644H44.1602V41.027H42.6482V40.2614H46.4697V41.027H44.9556V46.9644Z" fill="white"/>
<path d="M47.7807 40.2625V44.2166C47.7807 45.312 48.0935 46.324 49.3197 46.324C50.5459 46.324 50.8587 45.312 50.8587 44.2166V40.2625H51.6541V44.5017C51.6541 45.9779 50.782 47.1079 49.3197 47.1079C47.8574 47.1079 46.9854 45.9779 46.9854 44.5017V40.2625H47.7807Z" fill="white"/>
<path d="M53.4824 46.2001H53.762C55.3838 46.2001 56.7882 45.5607 56.7882 43.6142C56.7882 41.6575 55.3838 41.0263 53.762 41.0263H53.4824V46.2001ZM52.687 40.2627H54.0064C55.9617 40.2627 57.5836 41.346 57.5836 43.5775C57.5836 45.8621 55.9928 46.9636 53.9795 46.9636H52.687V40.2627Z" fill="white"/>
<path d="M59.1502 46.9656H58.3547V40.2627H59.1502V46.9656Z" fill="white"/>
<path d="M65.7786 43.6133C65.7786 42.1371 64.7305 40.9012 63.233 40.9012C61.7375 40.9012 60.6894 42.1371 60.6894 43.6133C60.6894 45.1424 61.8556 46.3254 63.233 46.3254C64.6125 46.3254 65.7786 45.1424 65.7786 43.6133ZM66.574 43.6133C66.574 45.6046 65.0785 47.1052 63.233 47.1052C61.3895 47.1052 59.894 45.6046 59.894 43.6133C59.894 41.6932 61.4082 40.1213 63.233 40.1213C65.0599 40.1213 66.574 41.6932 66.574 43.6133Z" fill="white"/>
<path d="M75.5982 43.5867V43.8534C75.5982 45.6941 74.3638 47.1072 72.5804 47.1072C70.7949 47.1072 69.3574 45.4885 69.3574 43.6315C69.3574 41.7033 70.8301 40.1192 72.6632 40.1192C73.6533 40.1192 74.6351 40.5895 75.2606 41.4182L74.7034 41.9782C74.2457 41.3205 73.4752 40.8848 72.6984 40.8848C71.2692 40.8848 70.1528 42.1024 70.1528 43.603C70.1528 45.01 71.2527 46.3416 72.6301 46.3416C73.6202 46.3416 74.6848 45.4457 74.7179 44.3503H73.0692V43.5867H75.5982Z" fill="white"/>
<path d="M80.1492 42.9642V40.2622H80.9445V46.9631H80.1492V43.7481H77.1147V46.9631H76.3193V40.2622H77.1147V42.9642H80.1492Z" fill="white"/>
<path d="M82.8664 46.9656H82.071V40.2627H82.8664V46.9656Z" fill="white"/>
<path d="M84.7849 46.2176H85.3938C86.1292 46.2176 86.8976 45.9875 86.8976 45.0346C86.8976 44.0939 85.9862 43.8964 85.2758 43.8964H84.7849V46.2176ZM84.7849 43.2326H84.9879C85.7418 43.2326 86.357 43.0718 86.357 42.1107C86.357 41.168 85.748 41.0092 85.0044 41.0092H84.7849V43.2326ZM83.9895 40.2619H84.7683C85.9676 40.2619 87.1006 40.5897 87.1006 42.1026C87.1006 42.5892 86.8479 43.1593 86.415 43.3731V43.3894C87.1689 43.534 87.693 44.3057 87.693 45.0875C87.693 46.4314 86.6035 46.9648 85.4788 46.9648H83.9895V40.2619Z" fill="white"/>
<path d="M89.3779 46.2001H91.3146V46.9636H88.5825V40.2627H89.3779V46.2001Z" fill="white"/>
<path d="M92.6056 46.9656H91.8103V40.2627H92.6056V46.9656Z" fill="white"/>
<path d="M29.584 35.796C31.5434 35.0406 33.7369 32.98 34.7042 30.1987H30.0894V29.1827H36.0526C35.9367 29.7039 35.6094 31.2432 34.348 33.0533C34.872 33.4931 36.1686 34.6008 37.3493 35.8225L36.5125 36.7102C36.15 36.2623 35.5038 35.4682 33.7452 33.8556C33.1259 34.6008 31.8914 35.9467 30.1971 36.6715L29.584 35.796Z" fill="white"/>
<path d="M40.4271 31.9617C40.8083 32.1307 41.5539 32.4667 42.486 33.2852C43.2669 32.2325 43.4699 31.2328 43.5507 30.852H40.4458C39.5655 32.1307 38.8115 32.6805 38.1114 33.1081L37.4465 32.3242C38.9979 31.4751 39.8057 30.3491 40.4168 28.6775L41.4918 28.8912C41.3219 29.2842 41.2163 29.5265 41.0216 29.8828H44.8017C44.5697 31.3448 43.8075 35.6267 38.5733 36.9075L38.0058 35.9831C38.6065 35.8792 40.1164 35.6186 41.7755 34.0793C40.889 33.2587 40.0812 32.8576 39.7332 32.6805L40.4271 31.9617Z" fill="white"/>
<path d="M45.4785 35.4878C48.8237 35.1987 50.3419 34.1338 51.4936 30.4138L52.4547 30.8617C51.2471 34.3964 49.7475 36.1312 45.7271 36.6077L45.4785 35.4878ZM52.1419 29.9007C51.9389 29.0598 51.7691 28.679 51.68 28.4733L52.4008 28.3043C52.6494 28.8439 52.8171 29.4609 52.8793 29.6848L52.1419 29.9007ZM50.8473 30.0961C50.7231 29.4609 50.6091 29.0883 50.4289 28.5935L51.158 28.4265C51.3797 28.9865 51.4604 29.2287 51.6096 29.9088L50.8473 30.0961ZM47.467 33.1849C46.4376 32.5945 45.4081 32.2422 44.9731 32.1017L45.3791 31.1325C45.7105 31.2323 47.032 31.6456 47.875 32.1302L47.467 33.1849ZM48.1505 31.0205C47.2702 30.5522 46.4376 30.2366 45.6732 30.0025L46.0999 29.0231C47.438 29.4425 48.1049 29.7602 48.6021 30.0025L48.1505 31.0205Z" fill="white"/>
<path d="M61.7454 35.4878C65.0905 35.1987 66.6088 34.1338 67.7604 30.4138L68.7215 30.8617C67.5139 34.3964 66.0143 36.1312 61.9939 36.6077L61.7454 35.4878ZM68.4087 29.9007C68.2058 29.0598 68.0359 28.679 67.9468 28.4733L68.6677 28.3043C68.9162 28.8439 69.084 29.4609 69.1461 29.6848L68.4087 29.9007ZM67.1142 30.0961C66.9899 29.4609 66.876 29.0883 66.6958 28.5935L67.4249 28.4265C67.6465 28.9865 67.7273 29.2287 67.8764 29.9088L67.1142 30.0961ZM63.7338 33.1849C62.7044 32.5945 61.675 32.2422 61.24 32.1017L61.646 31.1325C61.9774 31.2323 63.2989 31.6456 64.1419 32.1302L63.7338 33.1849ZM64.4174 31.0205C63.5391 30.5522 62.7044 30.2366 61.9401 30.0025L62.3668 29.0231C63.7069 29.4425 64.3718 29.7602 64.8689 30.0025L64.4174 31.0205Z" fill="white"/>
<path d="M76.779 29.6481C76.7168 29.2735 76.547 28.6484 76.3979 28.2941L77.1249 28.1556C77.2927 28.6138 77.3734 28.8927 77.4977 29.471L76.779 29.6481ZM75.8469 28.2289C76.0085 28.6219 76.0954 28.9396 76.2197 29.528L75.9525 29.5646V29.583H76.4849C76.3357 33.641 74.3928 35.9438 71.0643 36.6931L70.505 35.6934C71.9342 35.4042 74.8713 34.7873 75.3498 30.5909H69.7324V29.583H75.4202C75.3415 29.1167 75.2607 28.8377 75.0847 28.3593L75.8469 28.2289Z" fill="white"/>
<path d="M83.9226 32.4468C83.9226 33.9128 83.6658 35.0592 82.6343 35.8797C81.8285 36.5252 81.0021 36.6901 79.2104 36.8958L78.8832 35.8695C81.1554 35.7209 82.8766 35.3483 82.8766 32.9416V28.9019H83.9226V32.4468ZM79.4424 34.1368H78.415V29.0709H79.4424V34.1368Z" fill="white"/>
<path d="M89.6366 28.4543C89.5662 28.7618 89.4854 29.0978 89.2721 29.6394H93.0978V30.5617H90.1503V31.8872H92.8762V32.8096H90.1503V34.1453H92.8762V35.0595H90.1503V37.1506H89.1934V30.5617H88.8558C88.2613 31.7101 87.7828 32.2415 87.5074 32.5592L86.9025 31.7651C87.8719 30.7776 88.4394 29.2953 88.6528 28.3424L89.6366 28.4543ZM85.813 32.2517H85.7944C85.4941 32.663 85.2517 32.8951 85.0135 33.1191L84.6055 32.1967C85.5893 31.2255 86.1838 30.1627 86.5753 28.3505L87.5156 28.5195C87.3914 28.9674 87.1884 29.7432 86.7513 30.6656V37.1506H85.813V32.2517Z" fill="white"/>
<path d="M95.6257 31.0938H99.9568V29.5076H95.6257V31.0938ZM94.7496 28.6321H100.819V31.9734H94.7496V28.6321ZM98.8984 35.7972H100.787V33.586H98.8984V35.7972ZM93.9023 32.7267H97.3532V37.0474H96.5018V36.6646H94.7496V37.1125H93.9023V32.7267ZM94.7496 35.7972H96.5082V33.586H94.7496V35.7972ZM98.0409 32.7267H101.643V37.1125H100.792V36.6646H98.8984V37.1125H98.0409V32.7267Z" fill="white"/>
<path d="M53.292 35.2233C55.9744 33.3073 56.8795 31.5746 57.0204 31.2793L53.2444 31.2753V30.2491H57.6314V28.6873H58.6194V30.2491H60.6306V31.2997H58.6277L58.6298 36.7646H57.6314L57.6335 32.1182C57.6335 32.1182 56.8319 34.022 53.8741 36.109L53.292 35.2233Z" fill="white"/>
<path d="M29.2939 38.3817H102.243V38.4998H29.2939" fill="white"/>
<path d="M30.0951 14.1828V14.2785L29.9377 14.3315L29.5068 14.3213L29.076 14.3396L29.0532 14.2968L29.2521 14.1747C29.54 14.2276 29.7906 14.0871 30.0537 14.1584L30.0951 14.1828Z" fill="white"/>
<path d="M19.7336 23.6314L19.659 23.7189L19.5182 23.9022L19.4187 24.0142L19.1205 24.2504L18.816 24.4479C18.6172 24.623 18.3437 24.7553 18.0206 24.8062L17.6312 24.849C17.4075 24.8246 17.161 24.8246 16.9788 24.7268L16.7799 24.6657C16.5169 24.5313 16.4154 24.4336 16.3159 24.1526L16.3077 24.0834H16.2911L16.2745 23.8655L16.2497 23.8045L16.2082 23.328V23.2567H16.2165L16.2248 22.9086L16.2559 22.8393L16.2911 22.7701H16.3077L16.3159 22.6581H16.3222L16.3491 22.5685V22.2489L16.3822 22.1878L16.3967 22.1084L16.4154 21.9699H16.4319L16.4402 21.8905H16.4485L16.4734 21.8131V21.7602H16.4899L16.5065 21.6665H16.521L16.6722 21.3876L16.7633 21.2735C16.9622 21.1534 17.1341 20.9763 17.4489 20.96L17.8135 20.8378C18.0123 20.848 18.1946 20.8989 18.3935 20.9356L18.8077 21.1331L19.0542 21.3957H19.0708L19.0894 21.4487H19.1039L19.1785 21.5871C19.5037 22.2102 19.6487 22.6052 19.7087 23.328L19.717 23.4054H19.7336V23.6314ZM20.3612 23.6477L20.1396 23.5275L20.0733 23.4746L20.0236 23.4298L19.9904 23.2913H19.9718L19.949 22.9086H19.9407L19.9241 22.8068L19.8972 22.6479L19.8661 22.3955H19.8496L19.8247 22.2733H19.8164L19.7833 22.1694L19.7502 22.0473L19.6839 21.8559H19.6673L19.6279 21.752C19.3152 21.0007 19.1412 20.8337 18.3437 20.6403L18.0952 20.5609C17.8301 20.5507 17.5401 20.5609 17.3019 20.6485C17.1113 20.6281 17.0098 20.734 16.8793 20.8032L16.5562 21.0292L16.463 21.1697L16.4402 21.2389L16.3408 21.3692L16.2911 21.4303L16.2662 21.526H16.2559L16.2165 21.6034V21.6299L16.1917 21.7174H16.1834L16.1585 21.8477H16.142V21.8905L16.1254 22.0473H16.1088L16.0922 22.2489H16.0757L16.0508 22.3608H16.0425L16.0177 22.5074H16.0094L16.0011 22.6133H15.9845V22.7009H15.968L15.9845 22.8475L15.8188 23.1183H15.8105L15.8188 23.2058L15.8271 23.2303L15.9845 23.4298H15.968V23.4929L15.9597 23.7088L15.9845 23.8411L16.0094 23.9796L16.0177 24.0223H16.0342L16.0425 24.1017L16.0757 24.2056L16.1088 24.2748L16.2414 24.4682L16.521 24.7268L16.7861 24.9365C17.0595 25.0058 17.3164 25.1707 17.6478 25.0933C17.8383 25.0668 18.0786 25.075 18.2029 24.9528L18.4349 24.9101L18.6172 24.8592L19.0045 24.6576L19.2779 24.456C19.4685 24.3542 19.5596 24.1811 19.717 24.0569L19.8661 23.8737L19.9241 23.8228L20.2638 23.78L20.3612 23.6477Z" fill="white"/>
<path d="M12.8731 21.2649L12.8979 21.2731H12.8897V21.2894H12.8814L12.8234 21.5072H12.8068L12.7819 21.6396H12.7737L12.7488 21.8025H12.7405L12.7239 21.9002L12.6991 22.0488H12.6825V22.1262H12.666L12.608 22.2402L12.5085 22.1792L12.5023 22.1099H12.5168L12.5334 21.8656H12.55L12.5748 21.7536H12.5831L12.5914 21.6559H12.608L12.6245 21.5276H12.6411L12.6825 21.3952L12.6991 21.3423L12.7322 21.2894V21.2568L12.7488 21.2405L12.8234 21.1876L12.8731 21.2649Z" fill="white"/>
<path d="M13.0721 21.8216L13.0804 21.8583L13.097 21.9438H13.0804L13.0555 22.0843L12.9144 22.125L12.8812 21.9438L12.9144 21.8664L13.0721 21.8216Z" fill="white"/>
<path d="M13.3784 22.0045L13.4116 22.0575V22.1959L13.3535 22.2468L13.2207 22.1267L13.229 22.0493L13.2539 22.029L13.3784 22.0045Z" fill="white"/>
<path d="M13.8417 22.2568L13.8583 22.3525L13.8085 22.4136L13.6695 22.3606L13.6343 22.2731L13.6426 22.1794H13.7671L13.8417 22.2568Z" fill="white"/>
<path d="M17.1764 23.0135L17.1267 22.9524L17.1101 22.8221L17.1681 22.7956L17.193 22.8221L17.2012 22.8649L17.1764 23.0135ZM17.3752 22.7875L17.34 22.6042H17.3255L17.3089 22.4047L17.2592 22.309L17.1267 22.1767C16.8615 22.0911 16.7787 22.3171 16.6648 22.4393L16.613 22.5085L16.5881 22.5961H16.5799V22.649L16.555 22.7264H16.5405L16.5239 23.0827L16.555 23.4044L16.5799 23.4492L16.7621 23.7363L17.1101 23.718L17.2095 23.6569L17.3255 23.4492H17.34L17.3587 23.3535C17.34 23.1438 17.4001 22.9891 17.3752 22.7875Z" fill="white"/>
<path d="M10.2084 24.3709L10.2415 24.4238L10.3057 24.5195L10.3244 24.6132L10.2249 24.7272L9.75268 24.8494L9.48962 24.7191L9.52069 24.6498H9.52898L9.55591 24.5439H9.57248L9.58697 24.4482L9.67811 24.3342L10.0675 24.2569L10.2084 24.3709Z" fill="white"/>
<path d="M18.8066 27.4508C18.4669 27.4589 18.1458 27.4508 17.8144 27.4508L17.4664 27.408L17.4002 27.347L17.4561 27.3205L18.2018 27.3979C18.4089 27.3368 18.6077 27.4264 18.8066 27.4345V27.4508ZM25.8987 28.2876C25.5942 28.1818 25.238 28.1818 24.9459 28.0698C24.6663 28.0413 24.4074 27.9558 24.1029 27.9802L23.8067 27.9211L23.525 27.8682C23.3096 27.8254 23.0776 27.8153 22.8456 27.799C22.6468 27.6931 22.3651 27.7623 22.1828 27.6605C21.8514 27.6422 21.5966 27.4874 21.2652 27.5282C21.0311 27.52 20.8427 27.4345 20.5941 27.4589C20.3559 27.3897 20.0639 27.4264 19.8257 27.3816L19.3762 27.347C19.0634 27.3123 18.732 27.2777 18.4089 27.3123C18.1272 27.2594 17.831 27.2166 17.5141 27.2248L17.1102 27.1637L17.0356 27.3205H17.019L17.0273 27.408L17.2262 27.634C17.4747 27.7012 17.7647 27.799 18.0443 27.7216C18.268 27.7297 18.4835 27.7623 18.6989 27.7379C18.906 27.7725 19.1214 27.7297 19.3203 27.7827L19.7242 27.8153C19.9893 27.8336 20.2461 27.8071 20.503 27.8499C20.7018 27.799 20.8675 27.8947 21.0664 27.9028L21.7768 27.9558C22.0192 28.0331 22.3071 27.9904 22.5473 28.0515C22.771 28.0596 22.9947 28.0596 23.2019 28.1125L23.6658 28.1553L24.0532 28.2347L24.4011 28.2876C24.6497 28.3732 24.9459 28.365 25.1965 28.4526L25.6253 28.5381L25.9815 28.4933L25.9981 28.4689L25.8987 28.2876Z" fill="white"/>
<path d="M15.8444 28.4862C16.0929 28.5636 16.4057 28.5025 16.6563 28.6165L17.0105 28.6959L17.2342 28.7733C17.4414 28.7733 17.6485 28.8425 17.8618 28.8507L18.0379 29.0441V29.1479C17.723 29.1296 17.46 29.0075 17.1514 28.9749L16.7537 28.8853C16.2814 28.869 15.8858 28.6165 15.397 28.7204L15.107 28.5391L15.0759 28.4333L15.3887 28.4496L15.8444 28.4862Z" fill="white"/>
<path d="M25.535 30.8266C25.3196 30.9142 25.0897 30.8185 24.8825 30.792C24.5822 30.6698 24.228 30.5925 23.9214 30.4784V30.4703L23.501 30.4011C23.2835 30.3216 23.0453 30.2891 22.8029 30.2524L22.4239 30.1384C22.0842 29.9898 21.6617 29.8696 21.3075 29.7475C20.9574 29.6945 20.6612 29.5662 20.3464 29.4685L20.015 29.3219L20.0233 29.2954C20.2138 29.2771 20.363 29.3565 20.5287 29.383C20.7689 29.5052 21.09 29.5377 21.3551 29.6171L21.6285 29.6518C21.8688 29.723 22.1505 29.7475 22.3659 29.8615C22.573 29.9124 22.7284 30.0427 22.9624 30.061C23.2441 30.1649 23.5652 30.226 23.8469 30.3216L24.3688 30.4255C24.5594 30.4784 24.7727 30.4947 24.9488 30.5741L25.2222 30.6535L25.5433 30.7818H25.5516L25.535 30.8266ZM25.999 30.8103L25.8747 30.6698L25.593 30.4703C25.4107 30.4784 25.3113 30.3563 25.129 30.3746C24.9799 30.3054 24.8556 30.2076 24.6485 30.2178C24.3253 30.1038 23.938 30.0508 23.5818 29.9816L23.2006 29.8167L22.7802 29.6864L22.4736 29.5662L22.0759 29.4522C21.6119 29.3036 21.1169 29.2506 20.6364 29.1203C20.4292 29.0613 20.1724 29.0776 19.9901 28.9839C19.1885 28.8617 18.4511 28.6357 17.6744 28.4769C17.5066 28.3731 17.2415 28.3894 17.0447 28.312L16.8542 28.2774C16.6636 28.2346 16.4399 28.2244 16.2576 28.1634L16.0588 28.1308L15.628 27.9984C15.4229 27.8763 15.1412 27.9821 14.9652 28.0595L14.9341 28.1023L14.9589 28.2346L15.1806 28.1471L15.5037 28.2346C15.7937 28.2692 16.0505 28.3486 16.3156 28.426L16.4316 28.4688L16.7133 28.5726C16.9598 28.5991 17.2104 28.5726 17.4155 28.6683C17.6744 28.705 17.8878 28.8251 18.1612 28.764L18.2523 28.8251C18.4346 28.8332 18.5754 28.931 18.7163 28.9921L18.5589 29.0694L18.4346 29.2181L18.4594 29.2344C18.6811 29.3117 18.9151 29.3463 19.145 29.4258C19.4267 29.4685 19.667 29.609 19.9653 29.6253C20.4127 29.7739 20.8663 29.8778 21.3075 30.0264C21.5208 30.0956 21.7942 30.1303 21.9931 30.226L22.1671 30.2891C22.3887 30.3216 22.5399 30.452 22.7719 30.4621C23.0184 30.5314 23.2669 30.5925 23.5093 30.6698L24.0209 30.8022C24.344 30.8795 24.692 30.9406 24.9964 31.0445C25.2119 31.0608 25.4024 31.0363 25.593 31.0974L25.999 30.9406V30.8103Z" fill="white"/>
<path d="M9.80268 29.6345L9.82754 29.722L9.76954 29.7729L9.33043 29.7383L9.32214 29.6345L9.37185 29.5653L9.70326 29.5286L9.80268 29.6345Z" fill="white"/>
<path d="M21.8771 32.8365L21.8274 32.8202L21.3469 32.6105L20.916 32.3926L20.4956 32.1747L20.0233 32.0119C19.8079 31.9141 19.551 31.8612 19.3439 31.7492C19.1285 31.6881 18.9297 31.6189 18.766 31.4865L18.418 31.3745C18.2441 31.3053 18.1115 31.1913 17.9209 31.1485L17.6641 31.061L17.1939 30.835L16.9868 30.6945L17.0448 30.6253C17.3265 30.6538 17.517 30.8268 17.8049 30.8614L17.9126 30.8961C18.1612 31.0019 18.4429 31.061 18.6645 31.1994C18.8572 31.2605 19.0622 31.3399 19.2279 31.4173L19.6256 31.6189L19.8659 31.7492C20.0647 31.8266 20.2884 31.9223 20.4521 32.0363L20.8187 32.1931L21.0569 32.2867L21.554 32.5575L21.8771 32.7917V32.8365ZM22.9438 33.2885L22.6973 33.0991L22.4384 32.8609L21.9185 32.5046C21.6948 32.3152 21.3655 32.2277 21.1314 32.0363L20.8083 31.8714L20.6675 31.8103L20.5038 31.7125C20.3133 31.7044 20.2387 31.5659 20.0813 31.5313L19.7416 31.3847L19.2942 31.2076L18.9069 31.061L18.5837 30.9327C18.3994 30.8085 18.1612 30.7474 17.9458 30.6619C17.7324 30.6354 17.5481 30.5397 17.3493 30.497L17.3265 30.4685L16.8294 30.4522L16.7361 30.556L16.7134 30.6538H16.7051L16.7548 30.8268L17.0033 31.0447C17.3182 31.1587 17.6144 31.3216 17.9313 31.4254L18.3766 31.6087C18.5423 31.741 18.8137 31.7573 19.0042 31.853C19.172 32.0119 19.4599 31.9996 19.6525 32.1401C19.957 32.1747 20.1206 32.3763 20.4293 32.4109L20.4521 32.4354L20.858 32.6268L21.1563 32.7408C21.4131 32.8121 21.6451 32.9139 21.8274 33.0706C22.018 33.0869 22.1671 33.1928 22.3494 33.2356L22.5213 33.3333L22.9107 33.374L22.9542 33.315L22.9438 33.2885Z" fill="white"/>
<path d="M14.3465 34.7677H14.3796L14.4293 34.8369C14.5867 34.9163 14.7172 35.0202 14.9078 35.0629L15.1004 35.2278L15.0921 35.3256L15.0756 35.3581L15.2558 35.464C15.4712 35.4986 15.612 35.6045 15.8026 35.6452L15.9352 35.7593L16.0014 35.8998L16.0429 35.9323L16.076 36.0117L16.0926 36.1421H16.1091C16.4261 36.4882 16.6021 36.7631 16.9107 37.099L16.9853 37.2293H17.0039C17.2214 37.5226 17.6295 37.8402 17.7393 38.1782L17.8304 38.3166C17.963 38.4999 18.1577 38.7911 18.2115 39.0232L18.2364 39.3428L18.2612 39.465H18.2695L18.3109 39.5363L18.3441 39.7786H18.3586L18.4186 39.917L18.4518 39.9883C18.4994 40.1675 18.7148 40.2347 18.7832 40.536L18.808 40.589L18.8391 40.7172L18.8578 40.7885L18.8826 41.1448L18.9634 41.3545L19.0152 41.4401L19.0877 41.5378L19.272 41.6925L19.5454 41.9633L19.5848 42.0427L19.6179 42.3991H19.6014L19.5765 42.5192H19.5682L19.5599 42.6414H19.5454L19.5516 42.6577H19.5454V42.676H19.5599L19.5682 43.1626L19.6014 43.5983L19.6428 43.8325L19.6511 43.9384H19.6676V43.9832L19.678 44.1379L19.6925 44.2255H19.7008L19.6925 44.6266L19.7836 44.7467L19.7753 44.8954H19.7588L19.7422 45.0175H19.7256L19.7173 45.0868H19.7091L19.6842 45.1987L19.5931 45.2883L19.5019 45.2435V45.1214H19.5185L19.5454 44.9564L19.5765 44.7915V44.7386H19.5931L19.5848 44.6347L19.3777 44.4515L19.3611 44.3476H19.3777L19.4046 44.2499V44.1196H19.4129V44.0158H19.4274L19.4129 43.859L19.3777 43.7816L19.3528 43.7042L19.3279 43.6676L19.3031 43.5556H19.2865L19.2803 43.2685L19.272 43.0934H19.2865V42.8063H19.272V42.4948H19.2865V42.3461H19.3031L19.2534 42.0672H19.2368L19.2057 42.0061L19.038 41.8412L18.866 41.6681L18.6983 41.4584L18.6838 41.381H18.6672L18.6589 41.3016L18.6403 41.0939L18.5761 40.927L18.5574 40.7966H18.5429L18.5098 40.6052L18.4849 40.5523L18.4518 40.4831L18.3192 40.2408H18.3109L18.2695 40.1797L18.1949 40.0392L18.1701 39.9964L18.1121 39.917H18.0955L18.0624 39.8315L18.0292 39.7195L18.021 39.6381H18.0044L17.9795 39.4121L17.963 39.3103L17.9298 38.9702H17.9132L17.8801 38.8827L17.7973 38.7178L17.7475 38.6119H17.7393L17.6978 38.5508L17.6253 38.4225H17.6171L17.5736 38.3431C17.3229 37.9725 17.2587 37.7974 16.8279 37.4635L16.6373 37.2131H16.6311L16.5628 37.099C16.2811 36.6409 15.9704 36.645 15.8109 36.1583L15.6452 35.9079H15.6307L15.349 35.7511L14.9347 35.5679L14.9244 35.4905H14.9078L14.8581 35.3765C14.651 35.3765 14.6116 35.2034 14.479 35.1321L14.1145 34.9326L14.042 34.7066L14.1476 34.6638L14.3465 34.7677Z" fill="white"/>
<path d="M9.67859 42.6069L9.66202 42.8777H9.64545L9.63716 42.9551H9.62888L9.60402 43.2503L9.62059 43.2849H9.61231L9.60402 43.5985H9.58745L9.55431 43.7206V43.7471L9.45489 43.7817L9.34718 43.739L9.27262 43.5985L9.24155 43.5557L9.19805 43.4682L9.15662 43.3541L9.07377 43.2421L9.06549 43.2157L8.86664 42.9469L8.82729 42.9021L8.74236 42.7372L8.73408 42.6598H8.71751L8.64501 42.5376L8.51866 42.503L8.45238 42.4501L8.36332 42.3279L8.07334 42.0856C7.87449 42.0062 7.76678 41.823 7.48509 41.8515L7.14539 41.9553V41.9798L6.70835 41.9635L6.70006 41.937L6.70835 41.8067L7.04804 41.5033L7.21996 41.3709L7.4768 41.1796L7.70879 40.9535L7.97391 40.7438L8.18104 40.5972C8.36332 40.528 8.50416 40.4058 8.70301 40.3447L8.86664 40.3712L8.95985 40.4567L9.04892 40.5545L9.09034 40.642L9.18148 40.7438L9.24776 40.8232L9.2809 40.9006L9.32233 41.0594H9.3389L9.37411 41.1551L9.41346 41.2651L9.44661 41.3628H9.46318L9.48803 41.4829L9.51289 41.5359L9.52946 41.597L9.58745 41.9451H9.60402L9.62888 42.3727H9.63716L9.67859 42.5824L9.66202 42.6069H9.67859ZM9.85258 42.3972L9.83601 42.1895L9.79458 41.9635H9.80287L9.76973 41.7537H9.75316L9.73659 41.5888H9.72002L9.70345 41.5114L9.67859 41.2854L9.64545 41.1958H9.62888L9.57917 41.0065L9.55431 40.8925H9.53774L9.5046 40.7438L9.46318 40.6665L9.43003 40.5891L9.39689 40.5178L9.37411 40.4934L9.07377 40.2226L8.78379 40.0393C8.46895 39.9518 8.26182 40.1778 8.08162 40.3183L7.90763 40.4567L7.55965 40.6054L7.46852 40.6929L7.37945 40.7805L7.24689 40.8925L7.07911 41.0228C6.89891 41.1103 6.81399 41.2854 6.65035 41.4056L6.57579 41.4829C6.41423 41.654 6.27338 41.8393 6.11182 42.0164V42.0938H6.12839L6.13667 42.1467L6.25266 42.2953C6.59236 42.3809 6.92376 42.2668 7.23653 42.2159L7.59279 42.1467C7.79164 42.0938 7.85792 42.2506 7.98841 42.3198L8.18104 42.5112L8.40267 42.6598L8.41303 42.6944H8.4296C8.57459 42.9062 8.7755 43.0955 8.90185 43.3216L8.98263 43.4682H8.99921L9.01578 43.5211L9.04892 43.5801H9.06549L9.10898 43.7023H9.12348L9.20633 43.8856L9.24776 43.9365L9.58745 44.1116L9.75316 44.0261L9.76973 44.0077L9.77594 43.9283L9.81115 43.5455H9.82772V43.3908H9.81115V43.12H9.82772V43.0161H9.83601L9.84222 42.9103H9.86086L9.88572 42.7372H9.89401L9.90229 42.6598H9.91058V42.5458L9.85258 42.3972Z" fill="white"/>
<path d="M15.5215 47.6966L15.4635 47.7577L15.2481 47.7211C14.9685 47.5093 14.7572 47.2222 14.5273 46.9575L14.5024 46.931C14.3968 46.8007 14.1565 46.7315 13.9577 46.758L13.5351 46.6704C13.3114 46.6175 13.1374 46.7478 12.9303 46.6948L12.8557 46.593L12.8475 46.5829H12.8557L12.864 46.4363L12.922 46.3752L13.0235 46.2958L13.1292 46.2164L13.4523 45.9394V45.9211L13.5434 45.8091L13.792 45.5465L13.9494 45.4182C14.0902 45.2594 14.2559 45.1392 14.5024 45.0863L14.7841 45.0598L15.0493 45.2879L15.099 45.349L15.1321 45.3999L15.215 45.6076H15.2315L15.2564 45.687L15.2812 45.7318L15.3227 45.8173L15.3475 45.9476L15.3641 46.0677C15.42 46.2611 15.3537 46.5645 15.42 46.7478L15.4469 46.8883H15.4635L15.4863 47.2874H15.4967L15.5132 47.495L15.5381 47.6192L15.5215 47.6966ZM15.7949 47.6274L15.7597 47.2874L15.7452 47.1224H15.7535L15.7286 47.0084L15.7204 46.9738L15.6458 46.6338H15.6375V46.593H15.6458V46.3222L15.6271 45.9659H15.6126L15.5961 45.8091L15.5712 45.748L15.5381 45.6605H15.5215L15.5049 45.5546L15.4801 45.5139L15.4469 45.4426H15.4387L15.4138 45.3917L15.3392 45.3123L15.1735 45.0944L14.8256 44.7911L14.577 44.7381C14.3305 44.6852 14.2228 44.8684 14.024 44.9214V44.9295L13.7588 45.1209L13.3446 45.522L13.3031 45.5913V45.6259L13.27 45.687L13.2369 45.748L12.9883 46.0433L12.7584 46.2265L12.6486 46.3833L12.6093 46.4607L12.485 46.6093V46.7315L12.5326 46.8007C12.6652 46.9494 12.9717 47.0267 13.2037 46.9494L13.4937 46.9575L13.9639 46.9738L13.9722 46.8801H13.9908L13.9991 46.9575H13.9825L14.0074 47.0267H14.0571L14.3616 47.1306V47.1469L14.5024 47.2711L14.5376 47.3403L14.6785 47.5317L14.7096 47.5744L14.8421 47.7496H14.8587L14.9995 47.888L15.3972 48L15.7369 47.9389L15.7949 47.8269H15.8115V47.6274H15.7949Z" fill="white"/>
<path d="M42.0708 27.6421L42.0791 27.7113L42.137 28.0249L42.1619 28.1307L42.1785 28.2855H42.195L42.2365 28.4504H42.253L42.2696 28.6255H42.2862L42.3028 28.7294H42.3193L42.3276 28.7986L42.4022 29.0694H42.4105L42.4187 29.1732L42.4519 29.3728H42.4685L42.485 29.5112H42.7212L42.7149 29.3992H42.6984L42.6922 29.3198L42.6673 29.1732H42.6487L42.6259 29.0694H42.6176L42.5844 28.9635L42.5596 28.8515L42.543 28.6601H42.5265L42.4995 28.5563H42.4933L42.4602 28.4423L42.4519 28.3303L42.427 28.2855L42.367 27.9821L42.3607 27.8762H42.3442L42.3276 27.7642L42.3028 27.7032L42.2696 27.6176H42.253L42.2365 27.5036H42.2199L42.195 27.3794L42.1288 27.2247L42.0956 27.1208H42.0791L42.0376 26.9905L42.0045 26.9192L41.9713 26.85L41.9299 26.7543H41.9216L41.8802 26.5629H41.8636L41.8222 26.3899L41.7891 26.2921L41.7559 26.231H41.7394L41.7 26.1109L41.6648 26.0335L41.6068 25.8849L41.5737 25.7973H41.5592L41.5157 25.6141L41.4825 25.5367H41.4659L41.4349 25.4145H41.4183L41.3748 25.2496L41.3417 25.1885L41.3085 25.1193H41.294L41.2505 24.9971L41.2195 24.8852L41.1843 24.7976L41.118 24.6306L41.0869 24.537L41.0372 24.4128H41.0206L41.0123 24.3273L40.9854 24.2316L40.9461 24.0483H40.9357L40.9108 23.92L40.8881 23.8752L40.8611 23.7979H40.8446L40.8218 23.6655H40.8135L40.7948 23.5963L40.7721 23.4741L40.7389 23.3784H40.7203L40.6809 23.2481L40.6457 23.1707L40.5131 22.961L40.4158 22.849L40.275 22.6475L40.2915 22.4927L40.3143 22.3868H40.3247L40.3143 22.2748L40.2335 22.0814L40.2004 21.9959H40.1838L40.1672 21.943H40.1507L40.1092 21.8656H40.0927L40.0761 21.8126H40.0595L40.0015 21.7088C39.6432 21.2344 39.4485 20.7905 39.1668 20.3079L39.084 20.141H39.0653L38.9907 20.0209C38.8126 19.805 38.6511 19.5525 38.4129 19.4019L38.1974 19.2288L37.8992 19.3326L37.9489 19.4731L38.272 19.6564L38.62 19.9414L38.7774 20.1003L39.0073 20.3263L38.9327 20.4199L38.8105 20.5421L38.7608 20.593L38.736 20.6215L38.7608 20.707L38.7857 20.7355L39.1233 20.8557V20.872H39.1399C39.3656 21.1387 39.5666 21.4278 39.7696 21.7169L39.8027 21.7943H39.8193L39.9435 21.9959V22.0916H39.927L39.9125 22.2056H39.8938L39.8027 22.3359L39.7861 22.3522L39.7944 22.395L39.9021 22.5864L40.0844 22.7717L40.0927 22.7961L40.3329 23.0669L40.3744 23.1524H40.3909L40.4738 23.354L40.5131 23.4049L40.5566 23.5352H40.5732L40.5981 23.6574L40.6146 23.7877L40.6457 23.9363L40.6892 24.0137L40.7389 24.1094H40.7472L40.7721 24.2153H40.7866L40.8135 24.3883H40.8052L40.8218 24.5187H40.8383L40.8611 24.6225L40.8881 24.6754L40.9108 24.7976L40.9461 24.8852L40.9937 24.9544L41.0372 25.0582H41.0517L41.0869 25.2048C41.1635 25.4145 41.2795 25.6161 41.3686 25.8401L41.3914 25.9806H41.408L41.4349 26.1028L41.4825 26.2921H41.5012L41.5157 26.4143H41.5322L41.5737 26.5629H41.5902L41.6254 26.6586L41.6565 26.7278L41.7 26.8256L41.7311 26.9111H41.7476L41.8326 27.0842L41.8802 27.2165L41.9133 27.2939H41.9299L41.9796 27.4323L42.0128 27.5118L42.0542 27.6421H42.0708Z" fill="white"/>
<path d="M16.9121 11.2333V11.3209H16.8956L16.8873 11.3983H16.879L16.8542 11.4838L16.8044 11.5449L16.6636 11.7037L16.3488 11.5978L16.2576 11.4838L16.21 11.4349L16.1748 11.3474L16.1499 11.2944L16.1168 11.1722H16.1354V11.0847H16.1437L16.1499 10.8933L16.21 10.8078L16.2908 10.6958L16.6387 10.6143L16.8127 10.7813L16.8624 10.9218H16.879L16.9204 11.1376L16.9287 11.2333H16.9121ZM17.1193 11.0318L17.0944 10.8241L17.0613 10.765L16.995 10.6673L16.9867 10.651L16.9121 10.5818L16.7796 10.4576C16.6387 10.372 16.4399 10.4677 16.2576 10.425L16.1085 10.537L16.0256 10.6429L15.9448 10.8241H15.9366L15.9096 10.9381H15.8931V11.1112H15.9096L15.9366 11.3474H15.9448L15.9863 11.5367L16.0173 11.6243H16.0339L16.0919 11.7546L16.2576 11.7831L16.7713 11.834L16.8624 11.7627L16.9867 11.5896L17.0199 11.5367V11.5204L17.111 11.3474H17.1276L17.1193 11.0318Z" fill="white"/>
<path d="M30.2524 12.8601V12.8682L30.1198 12.7379L30.0618 12.687L29.921 12.5037L29.9127 12.4773L29.6558 12.2411L29.4176 12.0436L29.1276 11.7891L29.0779 11.7198H29.0614L29.0531 11.6954L29.0034 11.616L29.3431 11.7728C29.6475 12.1209 29.9251 12.239 30.1944 12.5282L30.2358 12.6503H30.2524L30.2689 12.8438L30.2524 12.8601ZM30.0535 13.7132L29.9541 13.6888L29.9707 13.644L30.1032 13.5992L30.1115 13.6155L30.0535 13.7132ZM23.1851 12.7297L23.1333 12.6096L23.3757 12.52L23.4067 12.687L23.1851 12.7297ZM21.5529 12.8519L21.4783 12.9557L21.1159 13.1919L20.5773 13.3996C20.2646 13.4505 20.0491 13.6073 19.7654 13.6969L19.3511 13.8089L18.8892 14.0614L18.7815 14.1204C18.4853 14.1815 18.2181 14.3037 17.9965 14.4523L17.4828 14.6702C17.0706 14.943 16.675 15.2464 16.3892 15.6618L16.2835 15.7737L15.9355 15.6618L15.8423 15.5152L15.8113 15.4439L15.7015 15.3136L15.687 15.2606H15.6704L15.5876 15.1405L15.513 15.0021L15.4716 14.8962L15.4053 14.776L15.3804 14.6702H15.3639L15.3307 14.5826L15.3224 14.5215H15.3059L15.281 14.3831L15.2562 14.2426H15.2396L15.2313 14.1204L15.223 13.7132L15.2396 13.5829L15.223 13.418V13.1125H15.2313L15.2562 13.0087V12.6951H15.2396V12.4854H15.2562L15.2313 12.3022H15.223L15.1982 12.1739H15.1816V11.9988L15.2396 11.956L15.4364 11.8583L15.4716 11.8074L15.5213 11.7381V11.5814H15.5461V11.502H15.5627L15.5689 11.3452H15.5793L15.5689 11.164L15.513 10.8952L15.397 10.7547L15.223 10.6936V10.5552H15.2313L15.2396 10.4595H15.2562L15.2727 10.3454H15.2893L15.4882 10.0074L15.5213 9.93007L15.5627 9.87713L15.6352 9.74478L15.687 9.69184L15.7015 9.60632H15.7201L15.6953 9.48416L15.6704 9.44954L15.6207 9.37217L15.5793 9.28462H15.5876V9.22353H15.5959C15.5793 8.99752 15.6352 8.79798 15.5959 8.58012L15.6124 8.57197L15.6041 8.52718H15.6124L15.5959 8.29302H15.5793L15.5627 8.16271H15.5461L15.513 8.00593L15.5047 7.9367H15.4882L15.4716 7.80435H15.455L15.4467 7.615C15.397 7.4236 15.4302 7.13651 15.4219 6.90032L15.4364 6.61322H15.4467L15.4716 6.53585V6.23857H15.4882L15.513 6.06551H15.5213V5.92501L15.5544 5.90872L15.6207 5.96166C15.7305 6.22432 15.8423 6.48495 15.9935 6.72521L16.0578 6.94307H16.0681L16.1075 7.08357H16.124L16.1593 7.15279L16.1655 7.18944L16.182 7.30957L16.1903 7.31772H16.182V7.5702H16.1655L16.1427 7.76363L16.1593 7.77178H16.1427L16.1593 7.77992H16.1427V7.84101H16.1593V7.86544H16.1427V8.03851H16.1344L16.124 8.2238H16.1075L16.124 8.50274H16.1075V8.65749H16.093L16.0847 8.9792H16.0764V9.21539H16.093L16.1427 9.26629L16.3146 9.10951V9.07693H16.3229V8.8835L16.3498 8.58826V8.51089H16.3581L16.3498 8.27673V8.14439H16.3581L16.3643 7.97742H16.3809L16.4078 7.82268V7.63943H16.4161L16.4244 7.39713H16.4327L16.4244 7.38695H16.4327L16.4554 6.93493H16.4637L16.4907 6.77814V6.70892H16.5052L16.53 6.58675H16.5383L16.5632 6.45644H16.5714L16.5963 6.2569H16.6149V5.97795H16.5963V5.85578H16.6149L16.6067 5.84764H16.6149L16.6294 5.72547H16.646L16.6626 5.58498H16.6791L16.704 5.47299H16.7123L16.7371 5.37933L16.7786 5.34268L16.9277 5.52593L16.9526 5.61349L17.0023 5.69085L17.0354 5.75194L17.0768 5.88429H17.0851L17.1265 5.96166L17.1514 6.04921L17.1763 6.1103L17.2011 6.26505H17.2094L17.2425 6.34445L17.2674 6.37703L17.3005 6.45644L17.342 6.58675H17.3585L17.3751 6.68449H17.3917L17.431 6.78629L17.516 6.92678L17.5491 7.02248L17.5574 7.09986H17.5739L17.5905 7.26682H17.6071L17.6237 7.51726C17.6382 7.78196 17.6527 8.08737 17.837 8.29302L17.9882 8.44981C18.1187 8.59641 18.2513 8.7369 18.4998 8.78984L18.8478 9.01585L19.0881 9.22353L19.1461 9.33552H19.1626L19.1958 9.39661C19.3366 9.64909 19.4091 9.89749 19.5769 10.1194L19.6597 10.2049C20.132 11.1049 19.9414 10.659 20.5608 11.2759L20.6519 11.4083L20.8093 11.7117H20.8176L20.859 11.8338L20.8922 11.956H20.9087L20.9502 12.1128H20.9667L20.9999 12.182L21.0662 12.3022L21.091 12.3551L21.0993 12.3816L21.5529 12.5974L21.5964 12.7725L21.5529 12.8519ZM15.1153 11.7198L15.0739 11.6506L15.049 11.3452L15.0656 11.2149H15.0739L15.1008 11.111L15.165 11.0051L15.2396 10.9115L15.2727 10.9563L15.3142 11.0051L15.165 11.2841L15.2313 11.3737L15.3059 11.4409L15.3473 11.4694L15.339 11.5712H15.3224L15.2479 11.6771L15.1153 11.7198ZM2.97544 38.1956L3.29028 37.9879C3.51191 37.8555 3.75425 37.7415 3.97588 37.603L4.10844 37.6926L4.11672 37.7517L4.1333 37.9349L4.16851 38.1874H4.17472V38.448H4.16851L4.14987 38.7697L4.16851 38.8492H4.17472L4.20786 38.9876L4.21615 39.0996H4.23272L4.241 39.519L4.27414 39.8672L4.30728 40.1339L4.31557 40.1462H4.30728L4.32386 40.1706H4.30728L4.31557 40.1869H4.30728L4.29071 40.3192L4.24929 40.362L4.19129 40.3538L4.06701 40.1706L4.05044 40.1339L3.92617 39.9079L3.82881 39.7959L3.75425 39.6412H3.74389L3.66933 39.519L3.62997 39.4824C3.56369 39.346 3.36484 39.3337 3.1805 39.346C2.95058 39.3704 2.77659 39.4559 2.56118 39.5089L2.28777 39.6493L1.87351 39.8489L1.75752 39.8224L1.74095 39.7532H1.74923L1.77616 39.5964L1.81551 39.5089L1.84865 39.4559V39.3867L1.90044 39.3337L1.95636 39.179H1.96672L1.9895 39.0996C2.48247 38.4195 2.30434 38.9123 2.74345 38.387L2.97544 38.1956ZM25.7328 11.728L25.7597 11.7117L25.8736 11.6241H26.2133V11.6771L26.1077 11.7646L25.7328 11.8176V11.728ZM38.9 19.5508C38.695 19.3675 38.5023 19.168 38.347 18.9582L38.2372 18.6202L38.1129 18.5225L38.0653 18.437L38.0239 18.2639L37.7007 17.8363C37.504 17.6979 37.4025 17.4637 37.1726 17.3579L36.8992 17.14L36.8412 17.0545L36.8639 17.0117L36.9137 16.9303V16.802L36.5677 16.5312L36.3917 16.3561L35.9546 16.0018C35.7475 15.9041 35.5487 15.7921 35.3001 15.7921C35.0764 15.6964 34.8113 15.6699 34.6042 15.5314L34.1671 15.3299L33.7446 15.0631L33.5706 14.9226L33.5457 14.8005L34.0097 14.9043L34.2914 14.888L34.308 14.776L34.25 14.6966L33.8854 14.6009L33.5043 14.548L33.1832 14.3037L33.2578 14.2507L33.7964 14.3485L33.9931 14.3831C34.1754 14.4258 34.3577 14.5134 34.5565 14.489L34.861 14.3994L34.8196 14.322C34.4053 14.2874 34.0594 14.096 33.6617 14.0451L33.2723 13.8944L33.4567 13.7987C33.6949 13.7743 33.902 13.8516 34.1174 13.8516C34.5151 13.8944 34.861 14.0247 35.209 14.1734L35.6398 14.3749L35.7724 14.3037V14.1652L35.6647 14.0777L35.3001 13.8089C35.0847 13.8516 34.9791 13.6358 34.7554 13.6765C34.4157 13.6358 34.0843 13.5299 33.7301 13.5646L33.3158 13.5035L33.2578 13.4261L33.3158 13.3732L33.6534 13.3487C33.8357 13.3202 34.018 13.3202 34.2085 13.3039C34.4902 13.2612 34.8196 13.2775 35.1013 13.3304L35.151 13.2958V13.2082C34.7719 13.0433 34.3411 13.139 33.9268 13.1024L33.4297 13.1309L33.38 13.0698L33.7446 12.8682C33.96 12.7481 34.2417 12.7297 34.4405 12.573C34.6394 12.4854 34.8693 12.4773 35.0847 12.461L35.5072 12.1637L35.5404 12.1046L35.6502 11.9031L35.7392 11.7565L35.7641 11.5997H35.7724L35.7807 11.4857L35.7889 11.3818L35.8138 11.1029L35.8221 10.8239L35.8469 10.8158L35.8221 10.6325L35.8469 10.5287V10.1805L35.8304 10.1642C35.8221 9.98912 35.8304 9.72849 35.8221 9.50248L35.8635 9.39661L35.8469 9.21539L35.8635 8.89164L35.8801 8.66563L35.8966 8.65749C35.8966 8.43962 35.9049 8.24008 35.9132 8.03036L35.8966 7.9367C35.8387 7.63536 35.8863 6.81276 35.8221 6.46662L35.7889 6.27319C35.8055 6.08179 35.7558 5.92501 35.7724 5.73361L35.7392 5.65624L35.7558 5.46484L35.7392 5.4567L35.7227 5.10038L35.6978 5.03115L35.6647 4.97007V4.76849L35.6502 4.76035L35.6232 4.50583L35.5652 4.3857L35.5487 4.21059L35.5238 4.02938L35.5072 3.80337V3.35949L35.4824 3.35135L35.499 3.33302L35.4824 3.32488L35.499 3.20271H35.4907L35.4824 2.91562L35.4658 2.90544L35.4513 2.63871C35.3436 2.08081 35.3125 1.52494 35.1261 0.985371L35.0536 0.759361C34.9625 0.557785 34.9521 0.254402 34.803 0.0874405L34.6394 -0.000110626L34.1982 0.0976181L34.1505 0.193321L34.0843 0.26255L34.018 0.374531L33.9517 0.451908L33.844 0.637196L33.6949 0.932434L33.554 1.22767L33.4712 1.36613L33.38 1.53105L33.3241 1.60232L33.2723 1.67969C33.1915 1.88941 33.0155 2.02787 32.9016 2.21112L32.8249 2.34347L32.6613 2.58577C32.0917 3.63844 31.5594 4.69519 31.0063 5.7438L30.9483 5.84764L30.9152 5.95352C30.5817 7.4012 30.0266 8.34189 29.3431 9.65112L29.3244 9.72849L29.2499 9.84863L29.2913 9.96265L29.3244 10.4513C29.4487 10.6407 29.6393 10.8076 29.7801 10.9807L29.9541 11.2067C30.0349 11.4897 30.3124 11.728 30.2855 12.0436V12.1372L30.0784 12.0354L29.805 11.8257C29.6475 11.6424 29.4176 11.4938 29.1753 11.3981C29.0779 11.3126 28.9951 11.1192 28.8045 11.2067L28.73 11.3452L28.6554 11.3981L28.5394 11.5468C28.761 11.7728 29.0779 11.9295 29.3161 12.1372L29.6393 12.4162L29.9541 12.7644L30.2275 12.9476L30.2524 13.0331L30.2772 13.1553L30.2524 13.2164L30.1861 13.2693L30.0204 13.1818L29.689 12.9211L29.4673 12.7216C29.2851 12.573 29.0614 12.4854 28.8708 12.3388L28.5705 12.3999L28.7693 12.5892C28.9537 12.7481 29.1939 12.8254 29.3824 12.9741L29.4404 13.0861L29.3513 13.0698C28.9682 13.0331 28.6222 12.8967 28.2328 12.8519C28.0423 12.8601 27.9014 12.7297 27.7026 12.7562C27.4727 12.634 27.1806 12.7033 26.9507 12.5892L26.9155 12.5485L26.8016 12.4854C26.5447 12.5282 26.2962 12.52 26.0331 12.5383L25.8571 12.5037L25.5609 12.3714L25.5754 12.1739C25.6085 11.9377 25.9233 12.0843 26.0476 11.9295C26.3065 11.9214 26.4785 11.7198 26.7353 11.7198L26.8016 11.5895L26.4122 11.5468L26.4287 11.5101L26.5033 11.4409L26.9155 11.2841L26.8761 11.2067L26.7022 11.2332L26.3956 11.3554C26.174 11.3452 25.9813 11.39 25.7597 11.3981L25.6085 11.3024L25.4449 11.5223C25.389 11.6547 25.536 11.73 25.4117 12.0517L25.362 12.4243L25.1114 12.4854C24.8483 12.5383 24.5832 12.52 24.3264 12.5811L23.8976 12.6422L23.821 12.3714L23.8127 12.2166L23.8396 12.0436L23.8541 12.0354L23.8396 11.6689L23.8541 11.616L23.8396 11.5549L23.8541 11.3981L23.8976 11.3207L23.9142 11.1823L23.9287 11.0174L23.9453 10.8952L23.9204 10.8239L23.879 10.6407L23.8313 10.5287L23.821 10.3027L23.4067 10.0319L23.1437 9.83233C22.9593 9.48416 22.9883 9.26426 23.0774 8.89164L23.1105 8.81427L23.1685 8.70228C23.2949 8.37243 23.4212 8.05072 23.5082 7.71069L23.531 7.56205L23.6325 7.108H23.6408L23.6491 7.02248L23.6801 6.84941C23.8417 6.32613 24.0613 5.83949 24.2373 5.32639L24.285 5.21237L24.3015 5.12481C24.7676 3.83595 25.1466 3.47963 25.826 2.42899L26.1222 2.07266L26.321 1.88941L26.4122 1.97493C26.522 2.35569 26.5862 2.74662 26.6607 3.13145L26.6442 3.62012L26.6276 3.62826L26.6773 3.73414C26.727 4.1149 26.7747 4.49361 26.7933 4.87437L26.8016 5.17775C26.8554 5.42616 26.8761 5.51168 26.9155 5.77841L26.9507 5.87207V6.12659L26.9673 6.13473C26.9507 6.36074 27.0004 6.53585 26.9839 6.76186L27.0004 6.88199L27.0398 6.99601V7.30957L27.0087 7.45618L27.0004 7.67404L26.9839 7.74327L26.9673 7.96114L26.9507 7.97742L26.9424 8.18715L26.9507 8.40501L26.9673 8.45795L27.0004 8.53532L27.017 8.79799L27.0398 8.87535L27.075 8.95273L27.0916 9.10137L27.1226 9.18892L27.1413 9.56356H27.133L27.1143 9.73664L26.9673 10.0848C26.8099 10.2844 26.5779 10.4757 26.2713 10.4676L25.8426 10.6692L25.6272 10.8769L25.6085 10.997L25.6499 11.0581L25.6582 11.1904L25.7514 11.2434C25.9316 11.1904 26.1222 11.164 26.3065 11.1029L26.5779 11.0499L26.8761 10.997L26.4536 10.8667L26.2713 10.8769L26.2548 10.8239L26.669 10.6061C26.8513 10.492 27.0253 10.3719 27.1806 10.2253L27.2655 10.0767C27.423 9.91785 27.3712 9.56357 27.365 9.35588V9.20724L27.3401 9.08508L27.3049 8.95273V8.30117L27.2904 8.29302L27.2469 8.15253V7.62314L27.2738 7.615V7.4236L27.2904 7.09986L27.2738 7.00416L27.2324 6.87384V6.29966L27.2469 6.29151L27.2324 6.2121C27.2759 5.73362 27.1413 5.27956 27.1226 4.81329L27.1061 4.68298C26.9984 4.37349 27.104 4.27372 26.9839 4.02938L26.9673 3.81966L26.9259 3.69749C26.9507 3.50813 26.901 3.35135 26.9155 3.15181L26.8927 2.99503C26.8285 2.20297 26.6959 2.24573 26.5944 1.67969L26.553 1.5677L26.1968 1.55956L26.0248 1.74892L25.7514 2.00343L25.7245 2.03601L25.71 2.13374L25.6582 2.21926L25.5443 2.3679L25.3185 2.72422L25.1466 2.93394C24.8256 3.21493 24.8028 3.55496 24.4838 3.93368L24.4672 4.02938L24.4175 4.14137C24.2477 4.69926 23.9473 5.17572 23.821 5.699L23.7298 5.88429L23.7153 5.97795L23.6636 6.10012L23.6242 6.15102C23.444 6.7924 23.241 6.95325 23.1685 7.69237L23.1437 7.87562L23.1105 7.9367C23.0857 8.44981 22.5637 9.12987 22.7708 9.60632L22.8123 9.7122L22.862 9.80586L22.9697 9.98911C23.094 10.1968 23.3674 10.2151 23.5579 10.3638L23.7298 10.5043L23.5828 10.7893L23.3322 10.6855C23.0774 10.6407 22.9034 10.4595 22.6963 10.3536L22.224 10.1968L22.0438 10.2762L22.2592 10.4595C22.4581 10.4757 22.6466 10.545 22.7708 10.6773L22.5968 10.8423L22.4726 10.997L22.9365 11.0255C23.152 11.0866 23.4254 11.0418 23.5973 11.2149L23.5579 11.3452L23.036 11.39L22.7895 11.4775L22.7543 11.5386L23.0587 11.5223L23.5165 11.5386L23.5393 11.7198L23.4336 11.8338C23.2265 11.8786 23.0111 11.9031 22.8123 11.956L22.7543 12.068L22.8703 12.1046L23.3508 11.9642L23.5227 12.0069V12.182L23.3591 12.3551L22.9862 12.5383L22.5243 12.7216L22.1847 12.913L21.9941 12.9293L22.0086 12.7379L22.0252 12.634L22.0003 12.52L21.9692 12.4243L21.729 12.3022L21.3064 12.2248L21.2899 12.1454L21.2567 12.0252L21.1076 11.6241L21.0827 11.5814L21.0082 11.4409C20.9336 11.1823 20.7182 11.0336 20.5442 10.8504L20.2293 10.6061C19.695 9.9321 19.6805 9.60429 19.2372 8.98734L18.8395 8.63102C18.5247 8.51903 18.2181 8.3704 18.0213 8.11792L18.0048 8.00593L17.9882 7.89191L17.9468 7.77992L17.9385 7.51726L17.895 7.37066V7.34419L17.9116 7.16094L17.8805 7.07542L17.8453 7.00416L17.8142 6.8657L17.7707 6.81276L17.7231 6.63969L17.6817 6.58675L17.6299 6.45644L17.5408 6.31798L17.4973 6.17953L17.4911 6.06551L17.4414 5.97795L17.3005 5.61349L17.1514 5.35897L17.11 5.23883L17.0768 5.12481L17.0354 5.04744L16.9691 4.86419L16.9277 4.797L16.7475 4.7522L16.6294 4.86419C16.414 5.17368 16.3705 6.27726 16.2918 6.55214L16.209 6.58675L16.0992 6.39739C15.9542 6.08383 15.8506 5.84153 15.7367 5.52593L15.5544 5.28974L15.4219 5.31824L15.3804 5.43023L15.3473 5.59719L15.3224 5.70918L15.2893 5.90872L15.2562 6.03089L15.2313 6.43811L15.2147 6.4483V6.63969L15.1816 6.81276V7.23017L15.1982 7.23831L15.1816 7.29125V7.63943L15.1982 7.64961L15.2147 7.91838C15.2727 8.10978 15.3266 8.29099 15.3804 8.48442L15.3556 8.66563C15.3804 8.89164 15.3307 9.08508 15.3473 9.31108L15.3639 9.44954H15.3701V9.7122C14.8854 10.5552 15.0345 10.3169 14.9082 11.0255L14.902 11.2943L14.875 11.3126L14.902 11.449C14.9061 11.7259 14.9703 12.0558 14.9993 12.3551L15.0345 12.4956C15.0345 12.6951 15.0159 12.8071 15.0242 13.0168L14.9993 13.025L14.9828 13.1553C14.9061 13.5625 14.8771 13.9779 15.0345 14.3749L15.1008 14.662H15.107L15.1567 14.8453L15.3059 15.1914L15.397 15.3747L15.5379 15.6271L15.3224 15.8796L15.1402 16.0792L15.0076 16.0446L14.9993 16.071L14.9496 16.0446L14.7756 16.1912L14.7342 16.0446L14.7528 15.8633L14.6286 15.7921L14.4794 16.0099L14.3862 16.2359L14.3365 16.3316C13.9947 16.5902 13.8788 17.1054 13.6095 17.4637L13.5183 17.5839L13.4852 17.6816C13.3775 17.9504 13.2304 18.1927 13.1062 18.4533L12.9736 18.663L12.9156 18.8218L12.8555 18.8992C12.3998 19.5548 12.1202 20.3102 12.0042 21.1165L11.9628 21.2387L11.9462 21.4912H11.9379L11.9276 21.5787L11.9131 21.6643L11.8799 21.7437L11.8634 21.9697L11.822 22.047L11.5651 22.4034L11.3331 22.5357L11.0183 22.6742C10.6123 22.7434 10.2333 22.9002 9.86043 23.0305L9.7113 23.1425C9.44617 23.1527 9.31568 23.3522 9.13962 23.4825V23.509L9.08991 23.5884L9.07541 23.7167L9.01534 23.8307L9.00084 24.1015V24.2664L9.01534 24.3804L9.0402 24.5087L9.03191 24.7449L8.94906 24.92L8.79372 25.2926L8.73572 25.5268L8.71915 25.5634L8.58659 25.8342L8.47681 25.8139L8.19718 25.822V25.8139L7.95691 25.7019L7.63379 25.7711L7.65036 25.8933L7.76635 25.9544L8.21997 26.0847L8.55137 26.2415L8.60316 26.3372L8.64458 26.4939V26.781L8.62594 26.8604L8.57001 26.9378C8.32146 26.9704 8.08947 27.0417 7.85749 27.0946C7.55922 27.172 7.31067 27.3206 7.02069 27.4143L6.55671 27.624L6.5505 27.738L6.60021 27.8602L7.02069 27.738L7.53644 27.4957C7.86577 27.4061 8.16404 27.2249 8.5203 27.1883L8.57001 27.2677L8.59487 27.3736L8.57001 27.5039L8.53687 27.5812L8.5203 27.6769L8.47681 27.7462L8.44574 27.8765L8.42917 28.0088L8.39603 28.0679L8.35253 28.1982L8.02319 28.4242L7.89892 28.5993L8.33803 28.5545L8.5203 28.7296L8.53687 28.921L8.57001 29.0086L8.60316 29.1124L8.64458 29.1735L8.66115 29.3547L8.69222 29.4341L8.71915 29.5563L8.75022 29.6336L8.78543 29.7395L8.84343 29.8271L8.802 29.9492C8.6363 30.0266 8.45402 30.104 8.25518 30.1223L7.94863 30.2343L7.82435 30.3402L7.79121 30.4786L7.82435 30.7047L7.8492 30.782L7.82435 30.7902L7.65036 31.0264L7.50951 31.3236L7.39559 31.5211L7.16153 31.8367L6.89641 31.9752L6.52564 32.3213L6.40137 32.4883L6.37651 32.5575L6.34337 32.6369L6.29159 32.7225L5.97054 32.9933L5.85454 33.203C5.77169 33.4534 5.48378 33.5491 5.3595 33.767C5.29944 33.9584 5.05088 33.9747 4.96803 34.1416C4.75468 34.2719 4.62212 34.4633 4.43156 34.6099L4.12501 34.8461L3.82881 34.9846L3.95102 35.1943L3.77082 35.4386C3.57197 35.5588 3.43113 35.7074 3.30685 35.8825L3.166 36.0556L3.1805 36.133L3.24678 36.3508L3.21571 36.4038L2.91537 36.7418L2.82631 36.8639L2.68546 37.0899L2.6606 37.2121L2.70203 37.2813L2.68546 37.43L2.51147 37.6723L2.41205 37.8311L2.32091 37.9594L2.31262 38.0815L2.2712 38.2383L2.22149 38.3951L1.90872 38.7514L1.84244 38.8492L1.80723 38.9347L1.56074 39.2828L1.46753 39.4926L1.45304 39.5435L1.42818 39.6738L1.39297 39.7613L1.3619 39.8835L1.33497 40.1014L1.32669 40.4129L1.3039 40.4658L1.33497 40.5799L1.12784 40.8323C0.993208 41.2742 0.94971 41.1764 0.823361 41.4839L0.854431 41.5368C0.995279 41.7832 0.893785 42.4307 0.765365 42.6852L0.75708 42.8501L0.839932 42.9031L0.914499 42.7728L0.947639 42.616L0.964209 42.4755L1.00564 42.4063L1.03878 42.3126L1.07192 42.1721L1.05535 41.8585L1.08849 41.7628L1.12784 41.6488L1.17962 41.545L1.28733 41.4065V41.2844L1.27697 41.1724L1.3039 41.093L1.59181 40.7448L1.77616 40.5534L1.8238 40.474V40.4414L1.68295 40.2052L1.73266 40.1706C1.94808 40.1014 2.14692 39.9609 2.38719 39.9446C2.61918 39.8387 2.87602 39.6046 3.15771 39.7532L3.57819 40.083L3.66933 40.2154L3.70454 40.3091L3.73561 40.3966L4.04216 40.6837L4.34042 40.6409L4.48956 40.4048L4.5227 40.2846L4.55584 40.1706L4.59727 40.0749V39.4926L4.57034 39.3337L4.55584 39.2136L4.53927 38.9958H4.5227V37.8311L4.48956 37.7252L4.44813 37.6295L4.43156 37.544L4.299 37.3078L3.80189 37.4035L3.71903 37.4748L3.29028 37.7008C3.11422 37.7863 2.98994 37.9695 2.79317 37.9797L2.86773 37.77L2.93401 37.5949L2.96715 37.4646L2.98165 37.2997C3.166 37.1877 3.29856 37.0126 3.48912 36.9006L3.52019 36.8212L3.33999 36.8028L3.21571 36.8293L3.26335 36.7519L3.57819 36.4038C3.81846 36.2897 3.90959 36.08 4.09187 35.9253L4.15815 35.6809L3.95102 35.6647V35.6199C4.69669 34.9846 4.61798 34.5774 5.72198 33.881L6.16938 33.4371C6.35166 33.429 6.37651 33.2457 6.51736 33.1826C6.77213 32.8792 7.21332 32.8019 7.55094 32.5575C7.85749 32.3743 8.20547 32.2888 8.57001 32.2195L9.11684 32.079L9.38818 32.0261L9.40475 32.2195L9.5311 32.2603C9.78587 32.4007 10.0841 32.5229 10.4052 32.4964C10.5895 32.4272 10.8857 32.3926 11.0266 32.5392C11.2337 32.5921 11.3414 32.7652 11.5651 32.7937L11.9131 32.9077L12.2528 33.1663L12.5241 33.4005C12.6733 33.5674 12.9218 33.6265 13.0544 33.8199L13.3796 34.0276L13.6675 34.1844C13.8746 34.2801 14.0155 34.4552 14.2392 34.5326L14.4131 34.4959L14.3054 34.2719L13.8912 34.0622L13.3796 33.7487C13.1621 33.6265 12.9467 33.4799 12.783 33.3231L12.3916 32.9933L11.9628 32.6878C11.7474 32.6532 11.5568 32.5311 11.3497 32.47C11.1861 32.4191 11.0535 32.305 10.8692 32.2704L10.457 32.2521L10.0924 32.0953C9.90186 32.1401 9.89357 31.9304 9.72787 31.906C9.52074 31.8876 9.29704 31.8612 9.08163 31.8876C8.86 31.8612 8.71086 32.0709 8.49338 31.9752C8.31317 31.9833 8.15576 32.0709 7.98177 32.079C7.74978 32.1666 7.53644 32.2521 7.33759 32.3926L7.01447 32.5575L6.66649 32.6369L6.68306 32.5229C6.80734 32.2969 7.08075 32.2277 7.26095 32.0342L7.33759 32.0261L7.55922 31.7757L7.59236 31.6698L7.63379 31.6107L7.78292 31.4356L8.00662 31.1139L8.30489 30.835L8.37946 30.6599L8.49338 30.4949L8.53687 30.3402C8.69222 30.1997 8.93456 30.2078 9.12512 30.1386L9.16448 30.0694L9.0402 29.878L9.11684 29.6418C8.93663 28.9821 8.60523 28.6807 8.69222 27.8419L8.73572 27.7625L8.75022 27.6423L8.78543 27.5466L8.802 27.4346L8.84343 27.3369V27.1475L8.87657 26.9989L8.90971 26.7281L8.94906 26.6426V26.441L8.90971 26.3372L8.87657 26.215L8.89107 26.1091L8.92628 25.9442L8.91799 25.8424H8.92628L8.93456 25.7365C9.17069 25.3313 9.04227 25.3843 9.1914 25.0931L9.39853 24.8406L9.34054 24.6655L9.28876 24.4578L9.26597 24.0038L9.47103 23.5192L9.76101 23.4418L10.1318 23.6474C10.3741 23.6922 10.4901 23.9182 10.6558 24.0323L10.6972 24.1015L10.8194 24.301L10.8774 24.4476L10.8547 24.4843V24.7449L10.9292 24.8243L11.1426 24.7551V24.3967L11.0929 24.2664L11.0535 24.1524L10.9789 24.0139C10.8464 23.8572 10.7055 23.6922 10.5232 23.5782L10.4052 23.4825L10.0758 23.2667L10.399 23.0651L10.5232 23.1099L10.5377 23.1954C10.7304 23.397 10.9127 23.057 11.1426 23.118L11.2006 23.2321V23.3278L11.3746 23.3359L11.9276 23.3705C12.1616 23.5008 11.7971 23.5436 11.8385 23.7004L12.3108 23.849L12.2859 23.9264L12.2362 24.0038L12.2528 24.0832L12.5324 24.1809L12.6256 24.1015L12.4081 23.8938L12.4516 23.737L12.4661 23.7269L12.4516 23.6678L12.1616 23.2748L12.0788 23.1628L11.8054 23.0651L11.6065 22.9083L11.6397 22.666L12.0788 22.3179L12.201 22.3789L12.3253 22.3341L12.3418 22.2832L12.3605 21.986L12.3916 21.9351L12.4081 21.7885L12.4516 21.6296L12.4661 21.5014L12.5013 21.4484L12.5241 21.3079L12.5593 21.2224L12.5324 21.0819L12.4081 21.1695L12.3771 21.2469L12.3605 21.369L12.3253 21.4647L12.2528 21.7783L12.2114 21.8903L12.201 21.8129L12.2362 21.7091V21.481L12.2528 21.4729L12.2673 21.1165L12.3025 21.0127C12.4081 20.6299 12.4061 20.1942 12.6505 19.8725L12.7975 19.5935L12.9632 19.2026C13.3029 18.6284 13.6385 17.7997 13.9802 17.2622L14.1066 17.028L14.2143 16.9221L14.206 17.14L14.3054 17.2174L14.4028 17.028L14.5271 16.7328L14.5768 16.635L14.6368 16.5495L14.7611 16.5068L14.8833 16.6432L15.0739 16.5577L15.3804 16.1667L15.4136 16.1138L15.4467 16.0364L15.687 15.8023L16.1593 15.8633L16.182 15.9041L16.2255 16.071L16.4824 15.957C16.6149 15.7575 16.8034 15.6007 16.9526 15.4174C17.2177 15.1914 17.4414 14.9491 17.7624 14.776L17.8453 14.7923L18.1456 14.7475C18.3528 14.5582 18.6676 14.489 18.8975 14.3403C19.0632 14.1917 19.3201 14.1387 19.5272 14.0349C19.7095 13.9473 19.9249 13.9473 20.0968 13.8618C20.4116 13.7824 20.6519 13.591 20.9419 13.4953C21.1821 13.4505 21.3561 13.2856 21.6109 13.2958C21.845 13.253 22.0604 13.139 22.2986 13.1125C22.5243 13.0861 22.7294 12.9741 22.9531 13.0087L23.2659 12.9293C23.4647 12.8356 23.6905 12.8682 23.9142 12.8438C24.0944 12.7827 24.3119 12.7908 24.5004 12.7562C24.7489 12.6687 24.9726 12.8254 25.2212 12.799C25.9316 12.7216 26.6442 12.8438 27.3132 12.9659C27.5866 13.0433 27.9014 13.0087 28.1748 13.0942L28.382 13.1227L28.6223 13.1553L28.7465 13.3202L28.7217 13.4098L28.9682 13.6358L28.672 13.7824L28.6637 13.87C28.8356 13.984 29.0862 13.9127 29.2913 13.9311L29.6641 13.9555L30.0369 13.9392L30.1612 14.1123L30.3104 14.1387L30.3601 14.0614L30.3766 13.9311L30.4098 13.7295C30.5631 13.2713 30.4885 12.6422 30.5755 12.2248V11.8338C29.515 9.61447 29.1836 10.8463 30.3021 8.56383L30.3601 8.41519C30.3725 7.97335 30.8178 7.52337 30.822 7.16094L30.8489 6.99601L30.9069 6.89217L30.9317 6.73539H30.9483L30.9545 6.66412C31.6567 4.57506 33.119 2.45749 34.1837 0.557785L34.4157 0.254406L34.7367 0.289017L34.7719 0.730858L34.7885 0.739002L34.8299 0.887638L34.8776 1.00166L34.9128 1.08921L34.9521 1.21952L34.9708 1.37631L35.0018 1.55956L35.0267 1.79371L35.0598 1.92403V2.14189L35.0764 2.15818L35.1013 2.47989H35.1116L35.1261 2.76698C35.1821 2.88304 35.2235 3.18031 35.2753 3.25565V3.49184L35.2918 3.49998V4.2391L35.3105 4.25539L35.325 4.36941L35.3581 4.45697L35.385 4.57913L35.4161 4.797V5.10852L35.4513 5.19608L35.4741 5.37933L35.5072 5.51778L35.5238 5.699L35.5652 5.75194L35.5404 5.80284L35.5652 5.99628L35.5735 6.50938L35.5984 6.51752L35.615 6.99601L35.6398 7.18944H35.6502L35.6315 7.21388C35.6232 7.62518 35.733 8.05684 35.6978 8.31746L35.6895 8.67582L35.6647 8.68396V8.8835L35.6315 9.02399V9.26629L35.615 9.27444L35.5984 9.56356L35.615 9.83233V10.3291L35.5735 10.4432L35.5984 10.5714V10.7995L35.5735 10.8158V11.1029L35.5652 11.2943L35.5238 11.3981L35.5072 11.5712L35.4741 11.6954L35.4161 11.8786C35.2587 12.1209 34.9356 12.2085 34.6228 12.2166C34.4405 12.2085 34.3162 12.3469 34.1505 12.3714C33.96 12.461 33.7363 12.4773 33.5229 12.5282C33.3075 12.6096 33.1253 12.7725 33.0072 12.9557L32.9678 13.0514C33.0155 14.153 32.4687 14.6233 32.4624 15.2097L32.5515 15.2891L32.769 15.1324L32.8083 15.0631L32.8436 14.9573L33.1398 15.0346C33.38 15.0876 33.5623 15.2179 33.7363 15.3584C34.0843 15.5477 34.4053 15.8023 34.803 15.8959L34.9521 15.957C35.1427 15.9835 35.2918 16.0893 35.4824 16.1219C35.7309 16.2889 36.0603 16.3561 36.2591 16.5841L36.2363 16.6961L35.9546 16.7409L35.8138 16.8447L36.1783 17.0545L36.7583 17.3762C37.0794 17.48 37.3051 17.7142 37.4853 17.9402L37.5268 18.0542L37.4605 18.0909C37.2948 18.0298 37.1125 17.9504 36.9219 17.9687L36.7583 18.0807L36.9882 18.2028C37.3113 18.2721 37.6179 18.4289 37.825 18.6365L38.1482 18.9501L38.4443 19.2555L38.668 19.4978L38.8669 19.7157H38.9663L38.9 19.5508Z" fill="white"/>
<path d="M16.6541 10.9242L16.6872 10.9772L16.6955 11.2113L16.7038 11.3498L16.6872 11.3681L16.4801 11.4292L16.4055 11.3763L16.3641 11.2887L16.2896 11.0464L16.3496 10.9772V10.9487L16.4387 10.908L16.6541 10.9242Z" fill="white"/>
</svg>
