<svg width="436" height="615" viewBox="0 0 436 615" fill="none" xmlns="http://www.w3.org/2000/svg">
<path d="M88.5694 327.829C118.805 327.829 115.11 300.58 115.11 300.58H151.728C151.728 323.445 141.903 354.166 92.6008 349.754C70.4071 347.768 60.7613 332.504 61.1289 315.868C61.2001 312.647 63.9988 310.29 67.2207 310.29C69.0383 310.29 70.5753 311.673 71.0432 313.429C72.3877 318.475 76.507 327.829 88.5694 327.829Z" fill="url(#paint0_linear_257206_188)"/>
<path d="M96.2579 200.239C95.102 148.673 137.704 108.598 189.283 108.598C236.652 108.598 277.303 142.502 290.062 188.119C302.35 232.05 320.984 288.141 347.012 340.279C371.979 390.292 342.57 471.346 287.102 478.267L242.266 483.861C224.189 486.117 205.835 483.643 189 476.682L174.84 470.826C163.399 466.095 152.926 459.008 146.251 448.58C107.918 388.702 98.0205 278.874 96.2579 200.239Z" fill="url(#paint1_linear_257206_188)"/>
<g opacity="0.5" filter="url(#filter0_f_257206_188)">
<ellipse cx="276.689" cy="525.155" rx="64.1123" ry="4.64867" fill="url(#paint2_linear_257206_188)"/>
</g>
<path d="M184.587 348.869C214.822 348.869 211.127 321.619 211.127 321.619H247.746C247.746 344.484 237.921 375.205 188.619 370.793C166.425 368.807 156.779 353.543 157.147 336.907C157.218 333.686 160.017 331.329 163.239 331.329C165.056 331.329 166.593 332.712 167.061 334.468C168.406 339.514 172.525 348.869 184.587 348.869Z" fill="url(#paint3_linear_257206_188)"/>
<g filter="url(#filter1_d_257206_188)">
<g filter="url(#filter2_ii_257206_188)">
<path d="M108.691 201.72C107.34 180.293 116.587 159.566 133.434 146.258C155.193 129.068 184.657 125.279 210.058 136.404L212.416 137.437C240.634 149.796 257.279 179.325 253.243 209.864L247.307 254.777C242.829 288.666 213.935 313.993 179.751 313.993C143.781 313.993 114.005 286.035 111.742 250.135L108.691 201.72Z" fill="url(#paint4_linear_257206_188)"/>
</g>
<g opacity="0.12" filter="url(#filter3_f_257206_188)">
<path d="M112.646 259.831C111.877 248.994 119.601 239.402 130.352 237.84L154.257 234.369C159.345 233.63 164.513 233.63 169.601 234.369L193.408 237.826C204.202 239.394 211.944 249.047 211.129 259.924C209.812 277.513 195.157 291.113 177.519 291.113H146.225C128.557 291.113 113.896 277.454 112.646 259.831Z" fill="url(#paint5_linear_257206_188)"/>
</g>
<g filter="url(#filter4_dd_257206_188)">
<rect x="151.377" y="260.606" width="10.5514" height="26.2989" rx="5.27568" fill="url(#paint6_linear_257206_188)"/>
</g>
</g>
<g filter="url(#filter5_dd_257206_188)">
<ellipse cx="130.804" cy="212.479" rx="16.3546" ry="16.0424" fill="url(#paint7_linear_257206_188)"/>
</g>
<ellipse cx="130.804" cy="236.148" rx="7.38595" ry="3.94484" fill="url(#paint8_linear_257206_188)"/>
<path d="M127.08 171.665C128.145 166.782 132.469 163.3 137.467 163.3C138.158 163.3 138.718 163.86 138.718 164.551V185.985C138.718 190.014 135.451 193.281 131.422 193.281C126.766 193.281 123.302 188.979 124.294 184.43L127.08 171.665Z" fill="url(#paint9_linear_257206_188)"/>
<path d="M126.443 268.122C127.324 273.494 131.966 277.437 137.41 277.437C138.132 277.437 138.718 276.852 138.718 276.13V250.76C138.718 246.612 135.355 243.249 131.206 243.249C126.573 243.249 123.044 247.403 123.794 251.975L126.443 268.122Z" fill="url(#paint10_linear_257206_188)"/>
<g filter="url(#filter6_dd_257206_188)">
<ellipse cx="17.6381" cy="17.585" rx="17.6381" ry="17.585" transform="matrix(-1 -8.71595e-08 -8.76869e-08 1 212.195 195.25)" fill="url(#paint11_linear_257206_188)"/>
</g>
<ellipse cx="8.06312" cy="4.27063" rx="8.06312" ry="4.27063" transform="matrix(-1 -8.71595e-08 -8.76869e-08 1 202.62 234.44)" fill="url(#paint12_linear_257206_188)"/>
<path d="M198.523 168.606C197.385 163.338 192.725 159.578 187.336 159.578C186.592 159.578 185.989 160.181 185.989 160.925L185.989 184.359C185.989 188.709 189.516 192.236 193.867 192.236C198.887 192.236 202.627 187.602 201.566 182.695L198.523 168.606Z" fill="url(#paint13_linear_257206_188)"/>
<path d="M199.215 273.125C198.272 278.919 193.268 283.175 187.398 283.175C186.62 283.175 185.989 282.545 185.989 281.767L185.989 254.102C185.989 249.625 189.619 245.996 194.096 245.996C199.092 245.996 202.899 250.472 202.097 255.404L199.215 273.125Z" fill="url(#paint14_linear_257206_188)"/>
<defs>
<filter id="filter0_f_257206_188" x="127.572" y="435.501" width="298.235" height="179.307" filterUnits="userSpaceOnUse" color-interpolation-filters="sRGB">
<feFlood flood-opacity="0" result="BackgroundImageFix"/>
<feBlend mode="normal" in="SourceGraphic" in2="BackgroundImageFix" result="shape"/>
<feGaussianBlur stdDeviation="42.5025" result="effect1_foregroundBlur_257206_188"/>
</filter>
<filter id="filter1_d_257206_188" x="0.17495" y="0.461384" width="362.053" height="400.665" filterUnits="userSpaceOnUse" color-interpolation-filters="sRGB">
<feFlood flood-opacity="0" result="BackgroundImageFix"/>
<feColorMatrix in="SourceAlpha" type="matrix" values="0 0 0 0 0 0 0 0 0 0 0 0 0 0 0 0 0 0 127 0" result="hardAlpha"/>
<feOffset dy="-21.2522"/>
<feGaussianBlur stdDeviation="54.193"/>
<feColorMatrix type="matrix" values="0 0 0 0 1 0 0 0 0 0.820833 0 0 0 0 0.992833 0 0 0 0.35 0"/>
<feBlend mode="normal" in2="BackgroundImageFix" result="effect1_dropShadow_257206_188"/>
<feBlend mode="normal" in="SourceGraphic" in2="effect1_dropShadow_257206_188" result="shape"/>
</filter>
<filter id="filter2_ii_257206_188" x="61.8062" y="120.536" width="192.036" height="208.333" filterUnits="userSpaceOnUse" color-interpolation-filters="sRGB">
<feFlood flood-opacity="0" result="BackgroundImageFix"/>
<feBlend mode="normal" in="SourceGraphic" in2="BackgroundImageFix" result="shape"/>
<feColorMatrix in="SourceAlpha" type="matrix" values="0 0 0 0 0 0 0 0 0 0 0 0 0 0 0 0 0 0 127 0" result="hardAlpha"/>
<feOffset dy="-9.56348"/>
<feGaussianBlur stdDeviation="9.56348"/>
<feComposite in2="hardAlpha" operator="arithmetic" k2="-1" k3="1"/>
<feColorMatrix type="matrix" values="0 0 0 0 0.379167 0 0 0 0 0.102691 0 0 0 0 0.351519 0 0 0 0.31 0"/>
<feBlend mode="normal" in2="shape" result="effect1_innerShadow_257206_188"/>
<feColorMatrix in="SourceAlpha" type="matrix" values="0 0 0 0 0 0 0 0 0 0 0 0 0 0 0 0 0 0 127 0" result="hardAlpha"/>
<feOffset dx="-46.7548" dy="14.8765"/>
<feGaussianBlur stdDeviation="42.5043"/>
<feComposite in2="hardAlpha" operator="arithmetic" k2="-1" k3="1"/>
<feColorMatrix type="matrix" values="0 0 0 0 0.291279 0 0 0 0 0.061684 0 0 0 0 0.779167 0 0 0 0.28 0"/>
<feBlend mode="normal" in2="effect1_innerShadow_257206_188" result="effect2_innerShadow_257206_188"/>
</filter>
<filter id="filter3_f_257206_188" x="30.8235" y="152.045" width="262.134" height="220.837" filterUnits="userSpaceOnUse" color-interpolation-filters="sRGB">
<feFlood flood-opacity="0" result="BackgroundImageFix"/>
<feBlend mode="normal" in="SourceGraphic" in2="BackgroundImageFix" result="shape"/>
<feGaussianBlur stdDeviation="40.8848" result="effect1_foregroundBlur_257206_188"/>
</filter>
<filter id="filter4_dd_257206_188" x="139.689" y="251.717" width="33.9287" height="53.252" filterUnits="userSpaceOnUse" color-interpolation-filters="sRGB">
<feFlood flood-opacity="0" result="BackgroundImageFix"/>
<feColorMatrix in="SourceAlpha" type="matrix" values="0 0 0 0 0 0 0 0 0 0 0 0 0 0 0 0 0 0 127 0" result="hardAlpha"/>
<feOffset dy="6.37565"/>
<feGaussianBlur stdDeviation="5.84435"/>
<feColorMatrix type="matrix" values="0 0 0 0 0.599108 0 0 0 0 0.279792 0 0 0 0 0.85 0 0 0 0.35 0"/>
<feBlend mode="normal" in2="BackgroundImageFix" result="effect1_dropShadow_257206_188"/>
<feColorMatrix in="SourceAlpha" type="matrix" values="0 0 0 0 0 0 0 0 0 0 0 0 0 0 0 0 0 0 127 0" result="hardAlpha"/>
<feOffset dx="-2.12522" dy="-1.06261"/>
<feGaussianBlur stdDeviation="3.91311"/>
<feColorMatrix type="matrix" values="0 0 0 0 1 0 0 0 0 1 0 0 0 0 1 0 0 0 0.2 0"/>
<feBlend mode="normal" in2="effect1_dropShadow_257206_188" result="effect2_dropShadow_257206_188"/>
<feBlend mode="normal" in="SourceGraphic" in2="effect2_dropShadow_257206_188" result="shape"/>
</filter>
<filter id="filter5_dd_257206_188" x="102.031" y="190.156" width="50.3453" height="52.5756" filterUnits="userSpaceOnUse" color-interpolation-filters="sRGB">
<feFlood flood-opacity="0" result="BackgroundImageFix"/>
<feColorMatrix in="SourceAlpha" type="matrix" values="0 0 0 0 0 0 0 0 0 0 0 0 0 0 0 0 0 0 127 0" result="hardAlpha"/>
<feOffset dx="-5.31304" dy="7.1052"/>
<feGaussianBlur stdDeviation="3.5526"/>
<feColorMatrix type="matrix" values="0 0 0 0 0.603458 0 0 0 0 0.390104 0 0 0 0 0.875 0 0 0 0.32 0"/>
<feBlend mode="normal" in2="BackgroundImageFix" result="effect1_dropShadow_257206_188"/>
<feColorMatrix in="SourceAlpha" type="matrix" values="0 0 0 0 0 0 0 0 0 0 0 0 0 0 0 0 0 0 127 0" result="hardAlpha"/>
<feOffset dx="3.18783" dy="-4.25043"/>
<feGaussianBlur stdDeviation="1.01503"/>
<feColorMatrix type="matrix" values="0 0 0 0 1 0 0 0 0 1 0 0 0 0 1 0 0 0 0.4 0"/>
<feBlend mode="normal" in2="effect1_dropShadow_257206_188" result="effect2_dropShadow_257206_188"/>
<feBlend mode="normal" in="SourceGraphic" in2="effect2_dropShadow_257206_188" result="shape"/>
</filter>
<filter id="filter6_dd_257206_188" x="165.564" y="191.19" width="50.7871" height="53.7735" filterUnits="userSpaceOnUse" color-interpolation-filters="sRGB">
<feFlood flood-opacity="0" result="BackgroundImageFix"/>
<feColorMatrix in="SourceAlpha" type="matrix" values="0 0 0 0 0 0 0 0 0 0 0 0 0 0 0 0 0 0 127 0" result="hardAlpha"/>
<feOffset dx="-4.25043" dy="7.43826"/>
<feGaussianBlur stdDeviation="3.5526"/>
<feColorMatrix type="matrix" values="0 0 0 0 0.603458 0 0 0 0 0.390104 0 0 0 0 0.875 0 0 0 0.32 0"/>
<feBlend mode="normal" in2="BackgroundImageFix" result="effect1_dropShadow_257206_188"/>
<feColorMatrix in="SourceAlpha" type="matrix" values="0 0 0 0 0 0 0 0 0 0 0 0 0 0 0 0 0 0 127 0" result="hardAlpha"/>
<feOffset dx="2.12522" dy="-2.03006"/>
<feGaussianBlur stdDeviation="1.01503"/>
<feColorMatrix type="matrix" values="0 0 0 0 1 0 0 0 0 1 0 0 0 0 1 0 0 0 0.4 0"/>
<feBlend mode="normal" in2="effect1_dropShadow_257206_188" result="effect2_dropShadow_257206_188"/>
<feBlend mode="normal" in="SourceGraphic" in2="effect2_dropShadow_257206_188" result="shape"/>
</filter>
<linearGradient id="paint0_linear_257206_188" x1="86.0246" y1="318.726" x2="113.384" y2="318.726" gradientUnits="userSpaceOnUse">
<stop stop-color="#0D0038" stop-opacity="0.37"/>
<stop offset="1" stop-opacity="0"/>
</linearGradient>
<linearGradient id="paint1_linear_257206_188" x1="211.257" y1="136.475" x2="203.437" y2="541.645" gradientUnits="userSpaceOnUse">
<stop stop-color="#0D0038"/>
<stop offset="1" stop-opacity="0"/>
</linearGradient>
<linearGradient id="paint2_linear_257206_188" x1="276.689" y1="520.506" x2="276.689" y2="529.804" gradientUnits="userSpaceOnUse">
<stop/>
<stop offset="1" stop-color="#151433" stop-opacity="0.87"/>
<stop offset="1" stop-color="#251F27" stop-opacity="0.87"/>
</linearGradient>
<linearGradient id="paint3_linear_257206_188" x1="165.541" y1="346.206" x2="219.448" y2="321.265" gradientUnits="userSpaceOnUse">
<stop stop-color="#0D0038" stop-opacity="0.37"/>
<stop offset="0.626611" stop-color="#050015" stop-opacity="0.08"/>
<stop offset="1" stop-opacity="0"/>
</linearGradient>
<linearGradient id="paint4_linear_257206_188" x1="183.296" y1="118.329" x2="183.296" y2="313.993" gradientUnits="userSpaceOnUse">
<stop stop-color="white"/>
<stop offset="0.0698237" stop-color="#F4F0F4" stop-opacity="0.990923"/>
<stop offset="0.942282" stop-color="#C7C5FE" stop-opacity="0.77"/>
<stop offset="1" stop-color="#C4C2FF" stop-opacity="0.81"/>
</linearGradient>
<linearGradient id="paint5_linear_257206_188" x1="161.929" y1="233.255" x2="161.929" y2="291.113" gradientUnits="userSpaceOnUse">
<stop stop-color="#5B225C"/>
<stop offset="1" stop-color="#151433" stop-opacity="0.87"/>
<stop offset="1" stop-color="#59266B" stop-opacity="0.87"/>
</linearGradient>
<linearGradient id="paint6_linear_257206_188" x1="156.653" y1="262.492" x2="156.679" y2="289.236" gradientUnits="userSpaceOnUse">
<stop stop-color="#261953"/>
<stop offset="1" stop-color="#11082F"/>
</linearGradient>
<linearGradient id="paint7_linear_257206_188" x1="130.804" y1="198.738" x2="130.816" y2="231.365" gradientUnits="userSpaceOnUse">
<stop stop-color="#2E1E65"/>
<stop offset="1" stop-color="#11082F"/>
</linearGradient>
<linearGradient id="paint8_linear_257206_188" x1="143.499" y1="232.203" x2="117.547" y2="242.058" gradientUnits="userSpaceOnUse">
<stop stop-color="#FE4A23" stop-opacity="0.35"/>
<stop offset="1" stop-color="#FA43B0" stop-opacity="0"/>
</linearGradient>
<linearGradient id="paint9_linear_257206_188" x1="130.54" y1="163.3" x2="130.325" y2="198.952" gradientUnits="userSpaceOnUse">
<stop stop-color="#FE4A23" stop-opacity="0.42"/>
<stop offset="1" stop-color="#FA43B0" stop-opacity="0.38"/>
</linearGradient>
<linearGradient id="paint10_linear_257206_188" x1="130.54" y1="277.437" x2="130.26" y2="236.781" gradientUnits="userSpaceOnUse">
<stop stop-color="#FE4A23" stop-opacity="0.17"/>
<stop offset="1" stop-color="#FA43B0" stop-opacity="0.48"/>
</linearGradient>
<linearGradient id="paint11_linear_257206_188" x1="17.6381" y1="2.52234" x2="17.6519" y2="38.2872" gradientUnits="userSpaceOnUse">
<stop stop-color="#2E1E65"/>
<stop offset="1" stop-color="#11082F"/>
</linearGradient>
<linearGradient id="paint12_linear_257206_188" x1="21.9216" y1="-7.62204e-07" x2="-6.34966" y2="10.8263" gradientUnits="userSpaceOnUse">
<stop stop-color="#FE4A23" stop-opacity="0.35"/>
<stop offset="1" stop-color="#FA43B0" stop-opacity="0"/>
</linearGradient>
<linearGradient id="paint13_linear_257206_188" x1="194.808" y1="159.578" x2="195.046" y2="198.414" gradientUnits="userSpaceOnUse">
<stop stop-color="#FE4A23" stop-opacity="0.42"/>
<stop offset="1" stop-color="#FA43B0" stop-opacity="0.38"/>
</linearGradient>
<linearGradient id="paint14_linear_257206_188" x1="194.808" y1="283.175" x2="195.116" y2="238.962" gradientUnits="userSpaceOnUse">
<stop stop-color="#FE4A23" stop-opacity="0.17"/>
<stop offset="1" stop-color="#FA43B0" stop-opacity="0.48"/>
</linearGradient>
</defs>
</svg>
